<svg xmlns="http://www.w3.org/2000/svg" width="1000" height="1000"><path class="bg" d="M150 0h700c75 0 150 75 150 150v700c0 75-75 150-150 150H150C75 1000 0 925 0 850V150C0 75 75 0 150 0Z" style="fill:#25274d"/><path class="path" transform="matrix(6 0 0 6 500 500)" fill="none" style="stroke:#2e9cca;stroke-width:4" d="M-20.5-1.2-22-2.8l-1.3-1.7-2.1-.8-2-.8-2.1-.3h-2.2l-2.1.2-2.2.5-1.9.8-1.4 1.7-.3 2.1.4 2.1.4 2.2.6 2 .8 2.1 1 1.9 1.5 1.5 1.8 1.2 2 .9 2.1.4 2.1-.4 2-.8 1.8-1.2 1.5-1.6.9-1.9.1-2.2V2.9l.8-1.9 1.7-1.5 1.9-.8 2.2.1 1.4 1.3.4 2.1.4 2.2.8 2 .9 2 1.3 1.7 1.4 1.6 1.7 1.3 2 1 2 .7 2.2.3 2.1-.1 2.1-.3 2.2-.7 1.8-1 1.8-1.3 1.4-1.6L13 8.2l1-2 .7-2 .5-2.1L16 0l1.5-1.3 2.2-.8 1.8-.8 2.2-.7 2.1-.5 2.1-.2 2.2-.9v-1.4h-1.9l-2.3.9-2-.4-.7-1.8-.2-2.3-.6-2-.7-2.1-.4-2.1-.1-2.2-.4-2.1-1.2-1.7-1.5-1.6-1.3-1.7-1.5-1.5-1.6-1.5-1.6-1.4-2-1-2-.7-2.1-.7-2.1-.6-2.1-.2-2.1.6-1.9.9-1.9.4-2.2.3-2-.2-2.2-.6-2.1-.3-2.1-.3H-19l-2.2-.4-2.2-.4-2-.3-2.3.4-1.5 1.3-1.4 1.7-1.2 1.9-1.1 1.7-1.4 1.9-1 1.8-.8 2-.5 2.2-.4 1.9-.6 2.4-.6 1.5-.9-1.4-.1-2.5.1-1.9-.9-2.2.6-2.2.4-1.7-.3-.6.5-1.1-1.7-1.1-1.8-1 1-1.6 1.8-.2 2.1.5.5-1.2-1.6-1.2-2.3-1.1-1.3-1 1.3-.6.2-1.2-.2-1.1 1.2-1.4-.5-2.1.2-1.7.3-2.4-.5-1.6 1.2 1.4.5 2.7.1 1.4 1.4-1.2.4-2.5.5-1.9 1.4-1.5 1.9-1 1.9-.9 1-1.7 2-1.2 1.5-.6.3-1.4 1.4-1.1 1.3-1 .7-1.8.8-2 .4-1.9.9-1.7 2-1.5 1.7-.9 1.8 1.1 2.1.7 1.9-.8 2.2-.4 2.2-.2 2-.4 2.2-.8-.3.3-1.4 1.4 2-.2 1.6-.7-1.4 1.3-.7 2.3 1.1 1.5 1.6-.9 1.4-1.9 1.6-1.2 2.1-.6 2.1-.5 2.3.2.8.9-1.7.1-2.7.1-1.3 1.1 1.1.9 2.2 1 1.8.6 2-.1 2 .9 1.4 1.3 1.3 1.1 2.1.8 1.7.9.6 1.7 1.6.3 2.4-.6 2.1.7 1.6.9h-1.4l-2.8-.3-1.2.9.3 1.7 2.4.1 2.1-.2-1.1.8-1.6 1-.1 2.1.9 2.1 1.7 1 2 1 1.5 1.1 1.1.7 1.7.9 1.9 1.4 1.6.7 1.8 1.4.8 2.2.3 1.7 1.1 2 .1 2-.2 2 .9 2.2-.2 1.9-.8 2.1.2 1.8-.1 2.1-1.3 2.1-1.2 1.3-1.2 2.3-.8 1.6.8-.4 1.4 1.1.7 2.3.3 2 .1 2.3.1 2.1.1 2.2.1 2.1-.1 2.1-.7 2.2-.8 1.9-1 2-1.2 1.7-1.2 1.8-1.9 1.4-1.7-.6.2-1.9-.1-2.4v-1.2l1.9.1.7-1.2-.9-2.4.8-1.6h2l1-.6L36.4 3l-2-.8L33.1.5 32-1.3 31.7.1l1.4 1.6 1.4-.8 1.3-2 .3-2-.9-2 .3-2.2.5-.9-1.1 1.7-1.4 1.8-1.6 1.3-1.4 1.7-.6 2v2.2l.9 2 .8 2-.1 2.1-.1 2.1.2 2.2V15l-.1 2.2-.3 2.1-.3 2.2-.4 2.1-.5 2.1-.5 2.1-.6 2.1-.8 2-1 2-.8 2-.9 2-.7 2-.5 2.1-.3 2.1-.2 2.2-1.6 1.6-1.6 1.3-.6 1.7-1.5 1.1-1.9.7-1.6 1.2-1 .7-.5 1.7-1.2 2.1-1.1 1.3-1 2.1-1.6.4v-1.4l-.3 1L6.3 63H4.8l-1.4.8-1.6 1.1L0 66l-1.9 1-1.6.4-2.2.1-1.6-.7-1.4.1-1.8.4-1.9-.7-2.1-.4-1.7-.6-1-1.9-1.5-1.7-2-.8-1.6-.9-.8-1.6-1.5-.5-2.1.2-1.2-1.6-1.2-2.1-1-1.7-1.5-1.3-1.4-.9.4-1.9v-1.4l-.8-.7-.2-2.2-.6-2.1-.4-1.9.4-2.4-.3-1.7-.6-1.7.4-1.9-.6-1.9-1.7-1.5.1-1 .1-1.1-.5-1.4.7-1.8-.1-1.8-.7-1.6.6-2.6.6-1.6.4 1.2.3 2.3.5 2.1 1.2 1.7 1.3 2 1.4 1.3v-1.7l.1-2.2 1.8-1 1.6-1.2 2.1-.3 2 1 1 1.7 1.6 1.5 2.1.7 2.1.1 2.1-.6 1.5-1.5 1.8-1.4 1.9-.9 2.2-.4 2.1.4 1.6 1.2 2 .8 2.1-.3 2.2.3 1.7 1.2 1.8 1.2L8.2 27l1 1.6 1.3 1.9 1.8.7.7-1.7.5-2.3 1-1.8 1.2-1.9 1.6-1.4 1.8-1.2 1.8-1.2 1.7-1.3 1.2-1.8.9-2 .6-2.1.5-2.1.4-2.1.1-2.2.2-2.1-.1-2.2L25.1.2l-1.3-1.4.9-1.9L25.9-5l1-1.7 2.2-.5.5 1.1-2.1.4-2.1-.1-2.2.3-2.2.1-2 .2-2.4.1-.8 1-.2 1.1-.1-1.3 1.4-1 .4.2-2.2-.7-2-.9-2-.6L8.9-8l-2-.3-2.2-.4H.4l-2.2.1-2.1.4-2.1.5-1.9 1-1.9 1.1-1.6 1.5-.1 2.1.3 2.1.4 2.1.7 2.1.8 2 1 1.9 1.5 1.6 1.6 1.4 2 .9 2.1.6 2.1.2 2.2-.2 2.1-.2 2.1-.7 1.8-1.2 1.5-1.5L12 7.3l.9-1.9.9-2.1.4-2.1V-.9L13.7-3l-1.1-1.9-1.5-1.5-2-.9H7l-2.2.1-2.2.1L.5-7l-2.2.2-2.1.5-2.1.4-2.1.8-1.7 1.2-1.8.7-2.1-.2-2.2-.2-2.2.5-1.8-.2-1.8-1.2-1.8-1.2-2-.8-2.1-.5-2.1-.4-2.2.1-2.1.2-2.2.3-2.1.8-2 .2-1.6 1.6.5 1.6.3-.6-1.2.5.4 2.1 1.3 1.6.5 2.2.6 2.1.6 2 1 2 1.5 1.5 1.6 1.5 1.9 1.1 2 .6 2.2.3 2.2-.5 1.8-.9 1.8-1.4 1.3-1.6 1.1-1.8 1.1-2.1.4-1.9.8-2.3-.2-1.9"/></svg>