<svg width="24px" height="24px" viewBox="0 0 24 24" xmlns="http://www.w3.org/2000/svg" fill="currentColor" class="bi bi-file-earmark-pdf">
    <path d="M 21 21 L 21 6.75 L 14.25 0 L 6 0 C 4.34375 0 3 1.34375 3 3 L 3 21 C 3 22.65625 4.34375 24 6 24 L 18 24 C 19.65625 24 21 22.65625 21 21 Z M 14.25 4.5 C 14.25 5.742188 15.257812 6.75 16.5 6.75 L 19.5 6.75 L 19.5 21 C 19.5 21.828125 18.828125 22.5 18 22.5 L 6 22.5 C 5.171875 22.5 4.5 21.828125 4.5 21 L 4.5 3 C 4.5 2.171875 5.171875 1.5 6 1.5 L 14.25 1.5 Z M 14.25 4.5 "/>
    <path d="M 6.90625 21.128906 C 6.613281 21.011719 6.375 20.789062 6.246094 20.5 C 5.953125 19.917969 6.050781 19.335938 6.367188 18.847656 C 6.664062 18.386719 7.15625 17.996094 7.714844 17.667969 C 8.417969 17.265625 9.164062 16.941406 9.9375 16.699219 C 10.535156 15.621094 11.066406 14.503906 11.527344 13.359375 C 11.253906 12.734375 11.039062 12.082031 10.882812 11.417969 C 10.753906 10.816406 10.707031 10.222656 10.816406 9.710938 C 10.925781 9.179688 11.226562 8.703125 11.789062 8.476562 C 12.078125 8.363281 12.390625 8.296875 12.691406 8.363281 C 13 8.429688 13.265625 8.628906 13.410156 8.910156 C 13.539062 9.15625 13.589844 9.445312 13.597656 9.71875 C 13.609375 10 13.582031 10.3125 13.527344 10.636719 C 13.402344 11.402344 13.125 12.339844 12.75 13.328125 C 13.164062 14.214844 13.652344 15.058594 14.21875 15.859375 C 14.886719 15.804688 15.558594 15.832031 16.21875 15.933594 C 16.765625 16.03125 17.320312 16.226562 17.660156 16.628906 C 17.839844 16.847656 17.949219 17.109375 17.960938 17.40625 C 17.96875 17.695312 17.890625 17.980469 17.753906 18.253906 C 17.632812 18.503906 17.449219 18.71875 17.222656 18.875 C 16.996094 19.023438 16.726562 19.097656 16.457031 19.082031 C 15.960938 19.0625 15.476562 18.789062 15.058594 18.457031 C 14.546875 18.035156 14.089844 17.558594 13.691406 17.03125 C 12.675781 17.148438 11.671875 17.351562 10.695312 17.640625 C 10.246094 18.4375 9.734375 19.195312 9.164062 19.90625 C 8.726562 20.429688 8.25 20.890625 7.773438 21.085938 C 7.5 21.210938 7.191406 21.226562 6.90625 21.128906 Z M 8.972656 18.277344 C 8.722656 18.394531 8.492188 18.511719 8.285156 18.636719 C 7.792969 18.925781 7.472656 19.210938 7.3125 19.457031 C 7.171875 19.675781 7.171875 19.832031 7.253906 19.996094 C 7.269531 20.03125 7.285156 20.050781 7.292969 20.0625 C 7.3125 20.058594 7.328125 20.054688 7.34375 20.046875 C 7.550781 19.960938 7.878906 19.695312 8.296875 19.1875 C 8.535156 18.894531 8.761719 18.59375 8.972656 18.277344 Z M 11.433594 16.285156 C 11.933594 16.167969 12.4375 16.070312 12.949219 15.996094 C 12.675781 15.578125 12.417969 15.148438 12.183594 14.707031 C 11.949219 15.238281 11.699219 15.765625 11.433594 16.28125 Z M 15.101562 16.960938 C 15.328125 17.203125 15.546875 17.410156 15.753906 17.574219 C 16.113281 17.859375 16.363281 17.953125 16.5 17.957031 C 16.539062 17.960938 16.574219 17.953125 16.605469 17.933594 C 16.667969 17.886719 16.71875 17.820312 16.746094 17.746094 C 16.800781 17.65625 16.832031 17.554688 16.835938 17.449219 C 16.835938 17.414062 16.820312 17.378906 16.796875 17.351562 C 16.71875 17.261719 16.496094 17.125 16.019531 17.039062 C 15.714844 16.988281 15.410156 16.960938 15.101562 16.960938 Z M 12.117188 11.699219 C 12.242188 11.292969 12.34375 10.878906 12.417969 10.457031 C 12.464844 10.175781 12.480469 9.945312 12.472656 9.761719 C 12.472656 9.660156 12.457031 9.558594 12.425781 9.464844 C 12.351562 9.472656 12.277344 9.492188 12.207031 9.523438 C 12.078125 9.574219 11.972656 9.683594 11.914062 9.949219 C 11.855469 10.234375 11.871094 10.652344 11.984375 11.179688 C 12.019531 11.347656 12.066406 11.523438 12.117188 11.699219 Z M 12.117188 11.699219 "/>
</svg>
